<svg width="36" height="30" viewBox="0 0 36 30" fill="none" xmlns="http://www.w3.org/2000/svg">
<g clip-path="url(#clip0_6158_1413)" filter="url(#filter0_d_6158_1413)">
<path d="M32 2.60975C30.9516 3.05836 29.8394 3.3522 28.7007 3.48144C29.8995 2.78756 30.7967 1.69633 31.2253 0.410799C30.0978 1.05666 28.865 1.51271 27.5795 1.75949C26.792 0.94571 25.7693 0.379785 24.6446 0.135299C23.5198 -0.109186 22.345 -0.0209199 21.2728 0.38862C20.2007 0.798161 19.2808 1.51003 18.6328 2.43166C17.9848 3.35329 17.6387 4.44204 17.6395 5.55635C17.6395 5.99275 17.6897 6.41563 17.7912 6.82046C15.5063 6.71176 13.2707 6.13891 11.2302 5.13924C9.18963 4.13958 7.38993 2.73553 5.94833 1.01861C5.43614 1.86606 5.16749 2.83039 5.17017 3.81184C5.17017 5.73677 6.18167 7.4373 7.72633 8.43303C6.81395 8.40504 5.9218 8.16607 5.12467 7.73613V7.80717C5.12388 9.08953 5.5825 10.3326 6.4226 11.3251C7.26269 12.3176 8.43242 12.9983 9.733 13.2516C8.88724 13.4757 7.99948 13.5089 7.13833 13.3485C7.50514 14.4517 8.2193 15.4166 9.18103 16.1085C10.1428 16.8003 11.304 17.1845 12.5027 17.2074C11.3111 18.1114 9.94675 18.7794 8.48776 19.1732C7.02876 19.567 5.50375 19.6788 4 19.5022C6.62561 21.1354 9.68253 22.0026 12.8048 22C23.3725 22 29.1522 13.538 29.1522 6.19912C29.1522 5.96231 29.1428 5.71873 29.1335 5.48079C30.2565 4.69487 31.2269 3.72329 32 2.61088V2.60975Z" fill="white"/>
</g>
<defs>
<filter id="filter0_d_6158_1413" x="0" y="0" width="36" height="30" filterUnits="userSpaceOnUse" color-interpolation-filters="sRGB">
<feFlood flood-opacity="0" result="BackgroundImageFix"/>
<feColorMatrix in="SourceAlpha" type="matrix" values="0 0 0 0 0 0 0 0 0 0 0 0 0 0 0 0 0 0 127 0" result="hardAlpha"/>
<feOffset dy="4"/>
<feGaussianBlur stdDeviation="2"/>
<feComposite in2="hardAlpha" operator="out"/>
<feColorMatrix type="matrix" values="0 0 0 0 0 0 0 0 0 0 0 0 0 0 0 0 0 0 0.25 0"/>
<feBlend mode="normal" in2="BackgroundImageFix" result="effect1_dropShadow_6158_1413"/>
<feBlend mode="normal" in="SourceGraphic" in2="effect1_dropShadow_6158_1413" result="shape"/>
</filter>
<clipPath id="clip0_6158_1413">
<rect width="28" height="22" fill="white" transform="translate(4)"/>
</clipPath>
</defs>
</svg>
