<svg width="465" height="398" viewBox="0 0 465 398" fill="none" xmlns="http://www.w3.org/2000/svg">
<g filter="url(#filter0_d_6160_1439)">
<path d="M391.057 41.8594C427.683 19.6001 459.673 0.972027 459.673 0.972027M150.227 238.338C143.579 246.089 137.285 253.835 131.449 261.505M258.705 197.971C258.705 197.971 258.7 197.943 258.679 197.88C258.392 196.671 255.488 183.912 257.095 165.954C258.231 153.251 261.618 137.949 269.795 122.307L269.793 122.297C269.793 122.297 269.793 122.297 269.802 122.295L269.801 122.286L269.809 122.284C269.809 122.284 269.809 122.284 269.808 122.275M269.223 122.287L269.224 122.297L269.233 122.295M270.31 126.37C270.31 126.37 264.626 155.711 301.241 167.049M257.524 165.842C243.069 173.696 236.942 185.937 235.236 189.984M180.777 278.917C191.151 282.128 205.108 282.062 223.674 274.656M243.946 204.021C242.637 200.154 240.23 194.696 236.004 189.675C230.563 183.216 222.11 177.488 209.116 176.822C202.961 176.501 195.783 177.319 187.416 179.736C150.204 190.488 147.173 220.655 149.496 238.85C150.346 245.464 151.897 250.495 152.777 252.444C153.792 254.698 156.121 259.617 160.383 264.687M89.8158 294.578C80.7491 310.583 75.9897 332.547 85.1163 354.692C98.8627 388.075 127.09 393.751 156.305 384.447C185.519 375.142 200.836 337.321 197.087 314.928C195.101 303.044 190.604 288.895 181.698 278.366C176.684 272.426 170.255 267.642 162.085 265.053C157.44 263.578 152.222 262.825 146.38 262.967C140.385 263.116 135.248 263.597 130.841 264.296M86.0049 353.068C67.5288 375.836 43.4563 373.071 27.9686 360.055C23.5447 356.336 19.8111 351.771 17.1253 346.731C13.9896 340.848 12.1487 334.753 11.3421 328.729C9.0111 311.574 15.012 295.05 22.989 285.906C30.6541 277.115 44.4536 274.085 51.7732 273.064M16.8971 329.929C16.8971 329.929 7.42526 324.752 5.53879 332.541C3.65231 340.331 12.3643 343.497 14.7339 351.133C17.1035 358.77 15.1917 369.121 19.4585 371.162C23.7237 373.193 29.702 370.147 28.6913 359.798M373.324 52.1934C373.324 52.1934 351.918 64.7599 358.505 102.119C365.093 139.488 390.968 148.859 390.968 148.859C409.858 122.024 407.768 92.9724 404.211 69.3863C402.269 56.4627 396.06 47.2269 390.172 42.8026M390.172 42.8026C389.405 42.2264 388.645 41.7356 387.908 41.3264C383.925 39.1367 381.551 40.4954 378.849 42.3161C371.344 47.3691 376.956 53.6337 386.051 49.749C387.949 48.9441 390.216 46.2583 390.172 42.8026ZM390.172 42.8026C390.178 41.9611 390.082 41.0564 389.888 40.1069C388.423 32.7791 381.106 22.5248 361.488 13.1101C328.96 -2.49716 288.813 2.26758 288.813 2.26758C288.813 2.26758 310.033 33.1705 328.938 51.6125M328.938 51.6125C342.237 48.3313 353.249 48.706 357.64 49.1313C366.887 50.0293 368.58 59.6312 351.918 64.7599C346.519 66.4208 337.998 60.4413 328.938 51.6125ZM328.938 51.6125C314.207 55.2433 296.662 63.3661 282.191 80.8686C282.191 80.8686 316.379 86.7763 340.779 72.0804C326.576 81.3919 300.825 97.3071 292.026 104.01C284.985 109.371 276.897 115.766 268.091 122.992C268.093 123.001 268.093 123.001 268.093 123.001L268.084 123.003C268.075 123.005 268.075 123.005 268.075 123.005L268.077 123.014M225.228 160.88C219.671 165.925 214.05 171.119 208.433 176.437M257.425 136.652C257.425 136.652 239.574 155.525 211.261 165.22C182.949 174.915 147.078 174.251 147.078 174.251C147.078 174.251 146.342 155.22 180.906 124.795C215.471 94.3703 250.635 111.92 256.722 116.929C262.8 121.94 261.753 127.196 250.798 128.942C239.843 130.688 207.929 99.1674 200.375 77.3309C192.156 53.5747 191.68 28.0223 191.68 28.0223C191.68 28.0223 225.187 43.447 251.496 71.767C277.806 100.087 266.758 119.156 266.758 119.156L266.748 119.148M209.86 102.278C209.86 102.278 186.143 92.9029 177.301 95.0016C177.301 95.0016 148.347 31.2636 67.5629 84.3311C67.5629 84.3311 84.205 112.58 119.787 112.031C155.37 111.481 168.784 94.4959 168.784 94.4959C168.784 94.4959 101.688 92.9424 95.9344 84.6228M245.278 100.006C245.278 100.006 222.753 68.6086 219.111 64.5225C216.825 61.9626 205.604 64.9095 213.676 76.7227C222.67 89.8815 239.47 84.7182 239.47 84.7182M236.172 128.168C236.172 128.168 181.519 139.161 170.93 155.552M194.533 124.598C194.533 124.598 217.046 125.024 227.356 136.798M305.691 68.2335C305.691 68.2335 318.618 71.194 330.177 68.7981C341.736 66.4021 341.736 66.4021 341.736 66.4021M364.861 47.0363C364.861 47.0363 342.503 17.3593 321.858 18.3817M383.53 62.632C383.53 62.632 378.404 89.1483 382.691 108.719C386.979 128.289 375.795 125.238 373.593 112.8C371.39 100.361 385.451 91.9316 385.451 91.9316M372.712 64.0545C372.712 64.0545 384.442 68.6417 387.746 78.1717M285.826 197.472C285.826 197.472 290.466 165.459 327.964 157.474C360.221 150.611 376.838 190.531 371.613 208.345C368.501 218.963 358.971 244.595 317.849 247.246M107.1 77.9726C107.1 77.9726 128.682 80.3185 136.156 96.9717M353.06 26.3852C353.06 26.3852 336.915 36.2537 323.922 29.2192M262.036 198.389C256.169 199.222 248.73 202.491 243.852 205.68C222.016 221.104 212.279 249.467 222.988 275.476C225.914 282.575 231.207 291.952 237.735 296.416C275.311 322.119 310.721 286.165 313.753 275.03C315.073 270.183 319.926 257.568 317.726 239.674C317.726 239.674 314.847 218.031 297.734 205.806C281.014 193.846 262.036 198.389 262.036 198.389ZM131.827 260.525C131.827 260.525 131.299 261.244 130.313 262.464C109.017 267.377 105.13 273.748 105.13 273.748C99.577 278.046 93.8887 284.621 89.2995 292.735C83.6828 293.992 77.9046 293.87 72.2445 291.58C61.9233 287.406 55.0324 280.562 50.4808 273.111C42.5571 260.152 41.4263 249.512 42.2381 239.522C43.2829 226.625 52.8885 217.614 52.8885 217.614C66.3386 201.268 97.2361 190.931 117.979 209.231C138.711 227.524 131.827 260.525 131.827 260.525ZM61.7184 242.123C64.569 239.97 64.3332 223.771 72.3365 226.844C80.3398 229.917 81.0504 241.945 77.9715 243.939C74.8925 245.932 68.3608 248.934 67.5054 246.353C66.6499 243.773 68.4925 241.631 69.7092 242.855C70.9331 244.067 73.3186 261.053 69.1127 263.519C64.9068 265.984 54.7949 255.546 57.8221 254.394C60.8493 253.243 61.3778 253.969 61.7047 255.823C62.0316 257.677 55.2424 266.082 50.5214 259.899C45.8004 253.715 50.2387 244.569 54.1371 244.952C58.0514 245.322 61.7184 242.123 61.7184 242.123ZM264.623 267.617C267.006 267.03 265.832 252.26 273.337 253.759C280.843 255.257 282.302 265.783 280.608 268.728C278.914 271.673 274.799 271.132 275.489 268.207C276.18 265.282 294.051 256.267 295.641 263.988C297.231 271.708 291.911 281.452 285.476 281.446C279.042 281.439 277.734 277.476 274.984 278.964C272.234 280.452 278.112 294.004 268.27 293.716C258.429 293.428 257.629 276.364 260.194 276.09C262.761 275.825 264.064 276.37 264.306 278.869C264.547 281.368 260.619 287.594 251.286 281.445C241.95 275.288 248.624 265.242 253.299 264.376C257.963 263.504 258.355 269.166 264.623 267.617ZM130.266 346.116C132.686 346.259 135.48 331.626 142.219 335.324C148.957 339.021 147.567 349.636 145.177 351.971C142.789 354.315 139.013 352.556 140.446 349.933C141.878 347.31 161.246 343.945 160.717 351.887C160.188 359.829 152.556 367.659 146.438 365.729C140.318 363.789 140.126 359.573 137.115 360.189C134.104 360.805 136.112 375.667 126.835 372.439C117.558 369.211 121.303 352.468 123.814 352.975C126.325 353.481 127.423 354.408 126.992 356.897C126.561 359.385 121.177 364.232 113.928 355.49C106.679 346.748 115.681 339.024 120.352 339.59C125.022 340.146 123.907 345.747 130.266 346.116ZM334.834 203.333C341.669 203.808 335.246 212.626 340.119 214.179C343.535 215.259 347.955 217.494 346.721 223.065C345.738 227.49 334.136 234.093 328.311 222.611C325.304 216.69 334.501 218.035 334.239 220.821C334.012 223.194 330.407 231.092 325.902 230.639C321.388 230.187 317.031 226.869 318.954 220.927C320.26 216.89 325.06 217.988 325.902 211.064C326.63 205.042 328.983 202.93 334.834 203.333ZM163.8 218.909C167.473 215.427 170.378 226.459 172.234 226.466C175.095 226.465 176.072 216.873 180.234 225.861C184.397 234.849 177.606 239.98 175.463 237.569C173.319 235.157 175.396 233.409 176.148 233.943C176.909 234.474 181.896 246.324 176.987 251.912C172.079 257.51 163.705 241.588 165.874 241.088C168.043 240.588 171.402 241.75 168.482 244.264C165.562 246.778 160.424 245.997 160.12 237.639C159.816 229.282 164.658 234.607 165.282 231.305C165.907 228.003 159.242 223.225 163.8 218.909Z" stroke="white" stroke-width="2" stroke-miterlimit="10" shape-rendering="crispEdges"/>
</g>
<defs>
<filter id="filter0_d_6160_1439" x="0.272461" y="0.10791" width="463.903" height="397.352" filterUnits="userSpaceOnUse" color-interpolation-filters="sRGB">
<feFlood flood-opacity="0" result="BackgroundImageFix"/>
<feColorMatrix in="SourceAlpha" type="matrix" values="0 0 0 0 0 0 0 0 0 0 0 0 0 0 0 0 0 0 127 0" result="hardAlpha"/>
<feOffset dy="4"/>
<feGaussianBlur stdDeviation="2"/>
<feComposite in2="hardAlpha" operator="out"/>
<feColorMatrix type="matrix" values="0 0 0 0 0 0 0 0 0 0 0 0 0 0 0 0 0 0 0.25 0"/>
<feBlend mode="normal" in2="BackgroundImageFix" result="effect1_dropShadow_6160_1439"/>
<feBlend mode="normal" in="SourceGraphic" in2="effect1_dropShadow_6160_1439" result="shape"/>
</filter>
</defs>
</svg>
